HIERARCHY
ROOT Hips
{
	OFFSET 0.000000 0.000000 0.000000
	CHANNELS 6 Xposition Yposition Zposition Xrotation Yrotation Zrotation
	JOINT LeftUpLeg_virtual
	{
		OFFSET 0.000000 0.000000 0.000000
		CHANNELS 3 Xrotation Yrotation Zrotation
		JOINT LeftUpLeg
		{
			OFFSET 10.205400 -3.823500 0.155100
			CHANNELS 3 Xrotation Yrotation Zrotation
			JOINT LeftLeg
			{
				OFFSET 0.708757 -12.982077 0.567790
				CHANNELS 3 Xrotation Yrotation Zrotation
				JOINT LeftFoot
				{
					OFFSET -0.708756 -10.717838 -2.184338
					CHANNELS 3 Xrotation Yrotation Zrotation
					JOINT LeftToeBase
					{
						OFFSET 0.108149 -7.191104 7.560241
						CHANNELS 3 Xrotation Yrotation Zrotation
						JOINT LeftToe_End
						{
							OFFSET 0.070230 0.081724 4.490308
							CHANNELS 3 Xrotation Yrotation Zrotation
							End Site
							{
								OFFSET 0 0 0
							}
						}
					}
				}
			}
		}
	}
	JOINT RightUpLeg_virtual
	{
		OFFSET 0.000000 0.000000 0.000000
		CHANNELS 3 Xrotation Yrotation Zrotation
		JOINT RightUpLeg
		{
			OFFSET -10.205400 -3.823500 0.005500
			CHANNELS 3 Xrotation Yrotation Zrotation
			JOINT RightLeg
			{
				OFFSET -0.708756 -12.982134 0.610632
				CHANNELS 3 Xrotation Yrotation Zrotation
				JOINT RightFoot
				{
					OFFSET 0.708754 -10.717769 -1.945823
					CHANNELS 3 Xrotation Yrotation Zrotation
					JOINT RightToeBase
					{
						OFFSET -0.108140 -7.191069 7.372968
						CHANNELS 3 Xrotation Yrotation Zrotation
						JOINT RightToe_End
						{
							OFFSET -0.070227 0.081735 4.479403
							CHANNELS 3 Xrotation Yrotation Zrotation
							End Site
							{
								OFFSET 0 0 0
							}
						}
					}
				}
			}
		}
	}
	JOINT Spine_virtual
	{
		OFFSET 0.000000 0.000000 0.000000
		CHANNELS 3 Xrotation Yrotation Zrotation
		JOINT Spine
		{
			OFFSET 0.000000 6.876099 0.125700
			CHANNELS 3 Xrotation Yrotation Zrotation
			JOINT Spine1
			{
				OFFSET 0.000000 5.730043 0.104720
				CHANNELS 3 Xrotation Yrotation Zrotation
				JOINT Spine1_split
				{
					OFFSET 0.000000 5.730043 0.104720
					CHANNELS 3 Xrotation Yrotation Zrotation
					JOINT Spine2
					{
						OFFSET 0.000000 5.730043 0.104720
						CHANNELS 3 Xrotation Yrotation Zrotation
						JOINT Neck_virtual
						{
							OFFSET 0.000000 0.000000 0.000000
							CHANNELS 3 Xrotation Yrotation Zrotation
							JOINT Neck
							{
								OFFSET 0.000000 10.314075 0.188496
								CHANNELS 3 Xrotation Yrotation Zrotation
								JOINT Head
								{
									OFFSET 0.000000 7.643700 -2.377400
									CHANNELS 3 Xrotation Yrotation Zrotation
									JOINT HeadTop_End
									{
										OFFSET 0.000000 43.788605 -13.619600
										CHANNELS 3 Xrotation Yrotation Zrotation
										End Site
										{
											OFFSET 0 0 0
										}
									}
								}
							}
						}
						JOINT LeftShoulder_virtual
						{
							OFFSET 0.000000 0.000000 0.000000
							CHANNELS 3 Xrotation Yrotation Zrotation
							JOINT LeftShoulder
							{
								OFFSET 2.196100 4.412489 0.087492
								CHANNELS 3 Xrotation Yrotation Zrotation
								JOINT LeftShoulder_split
								{
									OFFSET 2.196100 4.412489 0.087492
									CHANNELS 3 Xrotation Yrotation Zrotation
									JOINT LeftArm
									{
										OFFSET 8.771219 -2.981674 -0.026999
										CHANNELS 3 Xrotation Yrotation Zrotation
										JOINT LeftForeArm
										{
											OFFSET 8.512804 0.000000 -0.000000
											CHANNELS 3 Xrotation Yrotation Zrotation
											JOINT LeftHand
											{
												OFFSET 18.484802 0.000000 -0.000000
												CHANNELS 3 Xrotation Yrotation Zrotation
												End Site
												{
													OFFSET 0 0 0
												}
											}
										}
									}
								}
							}
						}
						JOINT RightShoulder_virtual
						{
							OFFSET 0.000000 0.000000 0.000000
							CHANNELS 3 Xrotation Yrotation Zrotation
							JOINT RightShoulder
							{
								OFFSET -2.196100 4.412496 0.070690
								CHANNELS 3 Xrotation Yrotation Zrotation
								JOINT RightShoulder_split
								{
									OFFSET -2.196100 4.412496 0.070690
									CHANNELS 3 Xrotation Yrotation Zrotation
									JOINT RightArm
									{
										OFFSET -8.771282 -2.981682 -0.094208
										CHANNELS 3 Xrotation Yrotation Zrotation
										JOINT RightForeArm
										{
											OFFSET -8.494598 0.000000 0.000000
											CHANNELS 3 Xrotation Yrotation Zrotation
											JOINT RightHand
											{
												OFFSET -18.483803 0.000000 0.000001
												CHANNELS 3 Xrotation Yrotation Zrotation
												End Site
												{
													OFFSET 0 0 0
												}
											}
										}
									}
								}
							}
						}
					}
				}
			}
		}
	}
}
MOTION
Frames: 5
Frame Time: 0.03333333
0.728719 19.109421 8.661273 0.000000 0.000000 0.000000 8.431262 5.831309 1.558685 -101.309799 -12.295310 13.967710 94.374206 -1.797781 -2.896611 8.169152 -4.844435 -12.716634 -3.685301 0.454817 0.556848 0.000000 0.000000 0.000000 8.226300 5.553793 1.516224 -101.673882 17.534195 -16.477784 96.492814 2.610798 0.655865 6.133475 -1.388898 13.501950 2.578626 0.622271 -1.526479 0.000000 0.000000 0.000000 8.825141 3.868630 1.171068 6.434647 -2.142875 -2.428969 15.233637 -1.221206 -0.749621 1.081444 0.524940 0.143634 0.000000 0.000000 0.000000 16.659349 -1.185339 -0.575305 -2.293041 -2.846101 -1.204924 -52.890700 2.121666 -7.938439 0.000000 0.000000 0.000000 16.012205 -1.419732 -0.404953 0.652000 -15.932238 4.449224 -3.994818 -4.865338 -1.693673 -61.239018 -27.747384 -15.783092 176.849170 -69.462416 178.561840 0.000000 0.000000 0.000000 14.885750 -1.815358 -0.540223 1.748983 14.410716 -3.297557 3.880417 0.498133 4.333104 -85.537314 29.602897 30.346401 -178.399883 53.797182 175.081791 0.000000 0.000000 0.000000 
0.724689 19.151928 8.623597 0.000000 0.000000 0.000000 8.844893 5.537039 1.370071 -101.550235 -12.577427 13.904976 93.897718 -1.890476 -2.784537 8.189327 -5.089728 -12.707161 -3.525339 0.475697 0.541710 0.000000 0.000000 0.000000 8.608095 5.314179 1.329559 -101.811264 17.328419 -16.256624 95.974799 2.565986 0.538738 5.943524 -1.372123 13.652294 2.760064 0.592505 -1.483128 0.000000 0.000000 0.000000 9.238239 3.868801 0.955586 6.327449 -2.139245 -2.424728 15.596295 -1.241582 -0.654720 0.786771 0.453614 0.127222 0.000000 0.000000 0.000000 16.948725 -1.121963 -0.563556 -0.197480 -2.964342 -1.226849 -51.752886 2.563060 -7.777425 0.000000 0.000000 0.000000 16.410996 -1.390425 -0.353172 0.635418 -14.887183 5.278347 -3.533180 -4.675406 -1.575489 -60.301315 -27.023811 -15.931053 177.368442 -68.709627 179.264503 0.000000 0.000000 0.000000 15.423547 -1.780767 -0.487567 1.467815 13.472577 -2.766969 3.254116 1.182680 4.155066 -83.988446 30.212625 29.523827 -178.336103 54.004421 175.258051 0.000000 0.000000 0.000000 
0.703813 19.184233 8.607929 0.000000 0.000000 0.000000 9.311895 5.244536 1.244427 -101.774504 -12.775237 13.759702 93.403547 -1.893060 -2.701884 8.195941 -5.266658 -12.642178 -3.424799 0.485997 0.578614 0.000000 0.000000 0.000000 9.063787 5.145896 1.194216 -101.965790 17.184365 -16.092498 95.412019 2.482965 0.480461 5.773144 -1.408565 13.707476 2.852009 0.562429 -1.361723 0.000000 0.000000 0.000000 9.690743 3.982217 0.729909 6.290909 -2.143165 -2.395170 16.122354 -1.201966 -0.626810 0.598111 0.564219 0.239870 0.000000 0.000000 0.000000 17.316220 -1.018824 -0.608051 2.629879 -3.037749 -1.438984 -50.306577 2.713378 -7.823593 0.000000 0.000000 0.000000 17.004369 -1.320992 -0.377862 0.657115 -14.253354 6.155962 -2.695628 -4.928021 -1.487910 -57.449056 -25.572877 -15.926388 178.061461 -67.280150 -179.855506 0.000000 0.000000 0.000000 16.199861 -1.669472 -0.503387 1.181276 12.740138 -2.023442 2.886547 2.037712 4.044155 -81.025202 31.272257 28.263096 -178.287677 54.821024 175.447192 0.000000 0.000000 0.000000 
0.672297 19.191164 8.608614 0.000000 0.000000 0.000000 9.801232 4.982965 1.210514 -101.994914 -12.832259 13.585195 93.034075 -1.804739 -2.692765 8.193122 -5.311226 -12.502505 -3.394901 0.489029 0.656116 0.000000 0.000000 0.000000 9.563603 5.082401 1.141266 -102.177615 17.124085 -16.041637 94.935921 2.388662 0.487933 5.671916 -1.461354 13.712648 2.798800 0.534401 -1.206893 0.000000 0.000000 0.000000 10.129344 4.179562 0.552533 6.279174 -2.170492 -2.371096 16.632554 -1.136261 -0.662134 0.520076 0.553907 0.333779 0.000000 0.000000 0.000000 17.641537 -0.906877 -0.693650 5.667180 -3.039652 -1.840959 -48.924222 2.528016 -8.102495 0.000000 0.000000 0.000000 17.574850 -1.233956 -0.476073 0.696122 -14.081192 6.840411 -1.662000 -5.685853 -1.514009 -53.165885 -24.146331 -15.645880 178.627588 -65.433007 -179.135563 0.000000 0.000000 0.000000 16.972168 -1.518572 -0.565024 0.960837 12.269032 -1.283904 2.633131 2.537508 3.960281 -77.143722 32.515327 26.581518 -178.346088 55.876760 175.739770 0.000000 0.000000 0.000000 
0.637298 19.175880 8.649491 0.000000 0.000000 0.000000 10.278554 4.828546 1.265130 -102.228999 -12.742585 13.449870 92.881229 -1.655694 -2.770530 8.153961 -5.186339 -12.328139 -3.365659 0.491654 0.737356 0.000000 0.000000 0.000000 10.080651 5.126307 1.171048 -102.471880 17.158673 -16.124354 94.633610 2.310481 0.563441 5.646157 -1.496650 13.718959 2.675097 0.516486 -1.070602 0.000000 0.000000 0.000000 10.540029 4.448026 0.461224 6.271120 -2.230173 -2.372752 16.932978 -1.091869 -0.730391 0.656350 0.595694 0.468042 0.000000 0.000000 0.000000 17.797226 -0.814999 -0.765324 8.294699 -2.950531 -2.339423 -47.887313 2.121386 -8.586371 0.000000 0.000000 0.000000 17.901504 -1.172836 -0.597130 0.740518 -14.455561 7.254211 -0.842842 -6.403381 -1.548685 -48.795636 -23.221993 -14.908350 178.894334 -63.794103 -178.770940 0.000000 0.000000 0.000000 17.476378 -1.377738 -0.627323 0.825840 12.068320 -0.804669 2.401351 2.636891 3.900519 -73.261360 33.593575 24.722373 -178.534766 56.506947 176.098628 0.000000 0.000000 0.000000 
